<svg width="206" height="70" viewBox="0 0 206 70" fill="none" xmlns="http://www.w3.org/2000/svg">
<path d="M147.826 24.7603H147.166C143.203 24.7603 139.289 25.6572 135.144 26.6044L133.917 26.8771L133.966 31.3691V47.3924H137.971V34.1963L138.086 29.0585L138.655 28.6567C140.428 27.4564 142.642 26.8573 144.884 26.9704C149.309 26.9704 152.399 30.1779 152.399 34.7632V47.3924H156.403V34.0312C156.403 26.2313 151.023 24.8751 147.826 24.7603Z" fill="#273D8B"/>
<path d="M180.258 27.1497V24.7602H173.724V18.4097H169.744V39.7717C169.744 42.7424 170.329 44.6512 171.615 45.8136C172.296 46.3836 173.105 46.8254 173.991 47.1118C174.877 47.3982 175.821 47.523 176.765 47.4784C177.953 47.4891 179.139 47.3832 180.299 47.1627V45.0602C179.945 45.0602 179.558 45.0602 179.088 45.0602C173.765 45.0602 173.765 40.5323 173.765 39.047V27.1497H180.258Z" fill="#273D8B"/>
<path d="M118.961 24.7603C116.474 24.759 114.003 25.1079 111.644 25.7936V27.2717C113.603 26.6573 115.667 26.3346 117.75 26.3174C118.21 26.317 118.669 26.3433 119.126 26.3963C125.009 26.9058 125.47 30.7017 125.47 31.8427V33.6725L123.822 33.6294H122.998C121.82 33.6294 120.428 33.694 119.076 33.816C111.998 34.4187 108.414 36.6432 108.414 40.4176C108.414 45.0531 112.797 47.4067 121.449 47.4067H129.442V33.4715C129.483 27.5301 126.138 24.7603 118.961 24.7603ZM125.47 46.2873H123.88C122.162 46.3067 120.444 46.2276 118.738 46.0505C117.09 45.8424 112.146 45.211 112.146 40.7549C112.146 39.1116 112.97 36.1911 118.738 35.2009C120.459 34.9303 122.206 34.8053 123.954 34.8278H125.545L125.47 46.2873Z" fill="#273D8B"/>
<path d="M82.4 24.7601C81.0358 24.7365 79.6792 24.9411 78.4036 25.3629C75.3548 26.4895 73.8881 28.6924 73.9128 32.1009L74.0281 47.4281H78.2305L78.1317 34.4401C78.1317 31.534 78.074 27.1353 84.3776 27.0994C84.9461 27.0994 85.5641 27.0994 86.2398 27.1855V25.1476C84.9802 24.8954 83.6924 24.7655 82.4 24.7601V24.7601Z" fill="#273D8B"/>
<path d="M26.0878 36.3848C26.0878 43.2591 31.246 47.5286 39.5437 47.5286C41.3109 47.5175 43.0703 47.3223 44.7843 46.9474V45.0243C43.5269 45.252 42.2452 45.3626 40.961 45.3544C34.7727 45.3544 30.4879 41.5585 30.4879 36.1336C30.4366 34.8987 30.669 33.6672 31.1713 32.5114C31.6736 31.3556 32.4357 30.2988 33.4131 29.4028C34.4115 28.56 35.594 27.9003 36.8905 27.4628C38.187 27.0252 39.5711 26.8187 40.961 26.8555C42.2473 26.8424 43.5308 26.9628 44.7843 27.2143V25.162C43.4575 24.9304 42.1082 24.8103 40.755 24.8032C31.9794 24.8032 26.0878 29.4602 26.0878 36.3848Z" fill="#273D8B"/>
<path d="M98.4597 35.0573C95.0731 34.0312 92.288 33.0194 92.288 30.35C92.288 27.9462 94.521 26.3962 97.99 26.3962C99.5258 26.4159 101.045 26.6785 102.473 27.1712V25.693C100.815 25.0647 99.0235 24.7469 97.2155 24.7602C91.7853 24.7602 88.4152 27.1712 88.4152 31.0891C88.3163 34.1675 92.1232 35.9112 95.3368 36.8297C99.053 37.9204 101.204 39.0685 101.204 41.7307C101.204 44.278 98.8552 45.8065 94.933 45.8065C92.7956 45.7355 90.6847 45.3698 88.6788 44.7229V46.6604C90.689 47.2169 92.7826 47.5119 94.8918 47.5358C101.319 47.5358 105.159 45.1678 105.159 41.214C105.093 38.3366 103.091 36.4565 98.4597 35.0573Z" fill="#273D8B"/>
<path d="M59.6823 24.7603H58.9407C50.7172 25.0832 46.968 31.082 46.968 36.5212C46.968 42.9793 51.3352 47.0121 58.8583 47.4928H60.4321C62.8708 47.5 65.3002 47.2298 67.6586 46.6892V44.9957C65.6188 45.4045 63.5303 45.5996 61.4374 45.5769C60.4672 45.5718 59.4994 45.4926 58.5452 45.3401C53.8566 44.5078 50.9973 41.7164 50.882 37.8702V36.4351H70.5756C70.5756 36.105 70.5756 35.7175 70.5756 35.2726C70.592 32.8186 69.8092 24.7603 59.6823 24.7603ZM66.8923 33.5935V34.9497H50.7089L50.9067 33.4141C51.3022 30.1994 53.6094 26.382 58.7264 26.2384H59.2208C60.2107 26.2054 61.1978 26.3502 62.1207 26.6638C63.0435 26.9774 63.8824 27.453 64.5851 28.0611C66.1342 29.5826 66.9592 31.561 66.8923 33.5935V33.5935Z" fill="#273D8B"/>
<path d="M165.261 24.7603H161.01V47.3924H165.261V24.7603Z" fill="#273D8B"/>
<path d="M163.152 18.4096C162.873 18.3955 162.593 18.4322 162.331 18.5175C162.069 18.6028 161.831 18.7348 161.631 18.905C161.43 19.0752 161.273 19.2798 161.169 19.5059C161.065 19.7319 161.016 19.9744 161.026 20.2178C161.06 20.6917 161.3 21.1366 161.697 21.4617C162.094 21.7869 162.619 21.9679 163.164 21.9679C163.71 21.9679 164.234 21.7869 164.632 21.4617C165.029 21.1366 165.269 20.6917 165.303 20.2178C165.31 19.9731 165.259 19.7297 165.152 19.5031C165.046 19.2765 164.886 19.0716 164.684 18.9016C164.482 18.7315 164.241 18.5999 163.978 18.5152C163.714 18.4305 163.433 18.3946 163.152 18.4096V18.4096Z" fill="#273D8B"/>
</svg>
